<svg xmlns="http://www.w3.org/2000/svg" style="display:none" id="rs-util-svg-iconset">
<symbol id="rs-util-svg-iconset--toggle" viewBox="0 3 24 18" preserveAspectRatio="xMidYMid meet">
  <!--Boxicons v3.0 https://boxicons.com | License  https://docs.boxicons.com/free-->
  <path style="fill:var(--rs-util-svg-iconset--toggle__dot-fill,currentColor)" d="M8 9a3 3 0 1 0 0 6 3 3 0 1 0 0-6"></path><path style="fill:var(--rs-util-svg-iconset--toggle__outline-fill,currentColor)" d="M16 6H8c-3.31 0-6 2.69-6 6s2.69 6 6 6h8c3.31 0 6-2.69 6-6s-2.69-6-6-6m0 10H8c-2.21 0-4-1.79-4-4s1.79-4 4-4h8c2.21 0 4 1.79 4 4s-1.79 4-4 4"></path>
</symbol>
</svg>